<mxfile host="app.diagrams.net" agent="Mozilla/5.0 (Windows NT 10.0; Win64; x64) AppleWebKit/537.36 (KHTML, like Gecko) Chrome/138.0.0.0 Safari/537.36 Edg/138.0.0.0" version="28.0.6">
  <diagram name="Page-1" id="jnbCKuPO6ZZClKsfNdFn">
    <mxGraphModel dx="1453" dy="797" grid="1" gridSize="10" guides="1" tooltips="1" connect="1" arrows="1" fold="1" page="1" pageScale="1" pageWidth="827" pageHeight="1169" math="0" shadow="0">
      <root>
        <mxCell id="0" />
        <mxCell id="1" parent="0" />
        <mxCell id="aVq_6t7tQ0G9yyWVLZrt-4" style="edgeStyle=orthogonalEdgeStyle;rounded=0;orthogonalLoop=1;jettySize=auto;html=1;" parent="1" source="aVq_6t7tQ0G9yyWVLZrt-1" target="aVq_6t7tQ0G9yyWVLZrt-5" edge="1">
          <mxGeometry relative="1" as="geometry">
            <mxPoint x="480" y="330" as="targetPoint" />
            <Array as="points">
              <mxPoint x="380" y="380" />
              <mxPoint x="380" y="380" />
            </Array>
          </mxGeometry>
        </mxCell>
        <mxCell id="aVq_6t7tQ0G9yyWVLZrt-1" value="&lt;font face=&quot;Comic Sans MS&quot;&gt;Skill Activate&lt;/font&gt;" style="ellipse;whiteSpace=wrap;html=1;" parent="1" vertex="1">
          <mxGeometry x="250" y="340" width="120" height="80" as="geometry" />
        </mxCell>
        <mxCell id="aVq_6t7tQ0G9yyWVLZrt-7" style="edgeStyle=orthogonalEdgeStyle;rounded=0;orthogonalLoop=1;jettySize=auto;html=1;" parent="1" source="aVq_6t7tQ0G9yyWVLZrt-5" target="aVq_6t7tQ0G9yyWVLZrt-6" edge="1">
          <mxGeometry relative="1" as="geometry" />
        </mxCell>
        <mxCell id="aVq_6t7tQ0G9yyWVLZrt-14" style="edgeStyle=orthogonalEdgeStyle;rounded=0;orthogonalLoop=1;jettySize=auto;html=1;entryX=0;entryY=0.5;entryDx=0;entryDy=0;" parent="1" source="aVq_6t7tQ0G9yyWVLZrt-5" target="aVq_6t7tQ0G9yyWVLZrt-13" edge="1">
          <mxGeometry relative="1" as="geometry" />
        </mxCell>
        <mxCell id="aVq_6t7tQ0G9yyWVLZrt-5" value="&lt;span style=&quot;font-family: &amp;quot;Comic Sans MS&amp;quot;;&quot;&gt;Pre-Check&lt;/span&gt;&lt;div&gt;&lt;font face=&quot;Comic Sans MS&quot;&gt;Cooldown, Resources?&lt;/font&gt;&lt;/div&gt;" style="rhombus;whiteSpace=wrap;html=1;" parent="1" vertex="1">
          <mxGeometry x="400" y="320" width="160" height="120" as="geometry" />
        </mxCell>
        <mxCell id="aVq_6t7tQ0G9yyWVLZrt-6" value="&lt;font face=&quot;Comic Sans MS&quot;&gt;End Skill&lt;/font&gt;" style="ellipse;whiteSpace=wrap;html=1;" parent="1" vertex="1">
          <mxGeometry x="420" y="470" width="120" height="80" as="geometry" />
        </mxCell>
        <mxCell id="aVq_6t7tQ0G9yyWVLZrt-12" value="&lt;font face=&quot;Comic Sans MS&quot;&gt;NO&lt;/font&gt;" style="text;html=1;align=center;verticalAlign=middle;whiteSpace=wrap;rounded=0;" parent="1" vertex="1">
          <mxGeometry x="480" y="440" width="60" height="30" as="geometry" />
        </mxCell>
        <mxCell id="aVq_6t7tQ0G9yyWVLZrt-16" style="edgeStyle=orthogonalEdgeStyle;rounded=0;orthogonalLoop=1;jettySize=auto;html=1;entryX=0;entryY=0.5;entryDx=0;entryDy=0;exitX=1;exitY=0.5;exitDx=0;exitDy=0;" parent="1" source="aVq_6t7tQ0G9yyWVLZrt-13" target="aVq_6t7tQ0G9yyWVLZrt-15" edge="1">
          <mxGeometry relative="1" as="geometry">
            <mxPoint x="520" y="450" as="sourcePoint" />
            <Array as="points">
              <mxPoint x="760" y="380" />
              <mxPoint x="760" y="380" />
            </Array>
          </mxGeometry>
        </mxCell>
        <mxCell id="aVq_6t7tQ0G9yyWVLZrt-13" value="&lt;font face=&quot;Comic Sans MS&quot;&gt;Calculate Skill Effective Range Based on Mouse Position&lt;/font&gt;" style="rounded=1;whiteSpace=wrap;html=1;" parent="1" vertex="1">
          <mxGeometry x="590" y="350" width="142.5" height="60" as="geometry" />
        </mxCell>
        <mxCell id="aVq_6t7tQ0G9yyWVLZrt-22" value="" style="edgeStyle=orthogonalEdgeStyle;rounded=0;orthogonalLoop=1;jettySize=auto;html=1;" parent="1" source="aVq_6t7tQ0G9yyWVLZrt-15" target="aVq_6t7tQ0G9yyWVLZrt-17" edge="1">
          <mxGeometry relative="1" as="geometry" />
        </mxCell>
        <mxCell id="aVq_6t7tQ0G9yyWVLZrt-15" value="&lt;span style=&quot;font-family: &amp;quot;Comic Sans MS&amp;quot;;&quot;&gt;Play Montage&lt;/span&gt;" style="rounded=1;whiteSpace=wrap;html=1;" parent="1" vertex="1">
          <mxGeometry x="770" y="350" width="125" height="60" as="geometry" />
        </mxCell>
        <mxCell id="aVq_6t7tQ0G9yyWVLZrt-24" style="edgeStyle=orthogonalEdgeStyle;rounded=0;orthogonalLoop=1;jettySize=auto;html=1;entryX=0;entryY=0.5;entryDx=0;entryDy=0;" parent="1" source="aVq_6t7tQ0G9yyWVLZrt-17" target="aVq_6t7tQ0G9yyWVLZrt-23" edge="1">
          <mxGeometry relative="1" as="geometry" />
        </mxCell>
        <mxCell id="H9soS0Qhs3Yd9zRTkoWd-1" value="" style="edgeStyle=none;curved=1;rounded=0;orthogonalLoop=1;jettySize=auto;html=1;fontSize=12;startSize=8;endSize=8;" edge="1" parent="1" source="aVq_6t7tQ0G9yyWVLZrt-17" target="aVq_6t7tQ0G9yyWVLZrt-20">
          <mxGeometry relative="1" as="geometry" />
        </mxCell>
        <mxCell id="aVq_6t7tQ0G9yyWVLZrt-17" value="&lt;font face=&quot;Comic Sans MS&quot;&gt;Hit any valid target?&lt;/font&gt;" style="rhombus;whiteSpace=wrap;html=1;" parent="1" vertex="1">
          <mxGeometry x="920" y="320" width="160" height="120" as="geometry" />
        </mxCell>
        <mxCell id="aVq_6t7tQ0G9yyWVLZrt-19" value="&lt;font face=&quot;Comic Sans MS&quot;&gt;NO&lt;/font&gt;" style="text;html=1;align=center;verticalAlign=middle;whiteSpace=wrap;rounded=0;" parent="1" vertex="1">
          <mxGeometry x="1000" y="440" width="60" height="30" as="geometry" />
        </mxCell>
        <mxCell id="aVq_6t7tQ0G9yyWVLZrt-20" value="&lt;font face=&quot;Comic Sans MS&quot;&gt;End Skill&lt;/font&gt;" style="ellipse;whiteSpace=wrap;html=1;" parent="1" vertex="1">
          <mxGeometry x="940" y="480" width="120" height="80" as="geometry" />
        </mxCell>
        <mxCell id="aVq_6t7tQ0G9yyWVLZrt-26" value="" style="edgeStyle=orthogonalEdgeStyle;rounded=0;orthogonalLoop=1;jettySize=auto;html=1;" parent="1" source="aVq_6t7tQ0G9yyWVLZrt-23" target="aVq_6t7tQ0G9yyWVLZrt-25" edge="1">
          <mxGeometry relative="1" as="geometry" />
        </mxCell>
        <mxCell id="aVq_6t7tQ0G9yyWVLZrt-23" value="&lt;span style=&quot;font-family: &amp;quot;Comic Sans MS&amp;quot;;&quot;&gt;Apply GE to targets&lt;/span&gt;" style="rounded=1;whiteSpace=wrap;html=1;" parent="1" vertex="1">
          <mxGeometry x="1110" y="350" width="125" height="60" as="geometry" />
        </mxCell>
        <mxCell id="aVq_6t7tQ0G9yyWVLZrt-28" style="edgeStyle=orthogonalEdgeStyle;rounded=0;orthogonalLoop=1;jettySize=auto;html=1;entryX=0;entryY=0.5;entryDx=0;entryDy=0;" parent="1" source="aVq_6t7tQ0G9yyWVLZrt-25" target="aVq_6t7tQ0G9yyWVLZrt-27" edge="1">
          <mxGeometry relative="1" as="geometry" />
        </mxCell>
        <mxCell id="aVq_6t7tQ0G9yyWVLZrt-25" value="&lt;span style=&quot;font-family: &amp;quot;Comic Sans MS&amp;quot;;&quot;&gt;Run Execution Calculation for Armor buff, etc&lt;/span&gt;" style="rounded=1;whiteSpace=wrap;html=1;" parent="1" vertex="1">
          <mxGeometry x="1260" y="350" width="125" height="60" as="geometry" />
        </mxCell>
        <mxCell id="aVq_6t7tQ0G9yyWVLZrt-30" value="" style="edgeStyle=orthogonalEdgeStyle;rounded=0;orthogonalLoop=1;jettySize=auto;html=1;" parent="1" source="aVq_6t7tQ0G9yyWVLZrt-27" target="aVq_6t7tQ0G9yyWVLZrt-29" edge="1">
          <mxGeometry relative="1" as="geometry">
            <mxPoint x="1630" y="380" as="targetPoint" />
          </mxGeometry>
        </mxCell>
        <mxCell id="aVq_6t7tQ0G9yyWVLZrt-27" value="&lt;span style=&quot;font-family: &amp;quot;Comic Sans MS&amp;quot;;&quot;&gt;Attribute Post-Process&lt;br&gt;(Clamp value,broadcast)&lt;/span&gt;" style="rounded=1;whiteSpace=wrap;html=1;" parent="1" vertex="1">
          <mxGeometry x="1420" y="350" width="152.5" height="60" as="geometry" />
        </mxCell>
        <mxCell id="aVq_6t7tQ0G9yyWVLZrt-29" value="&lt;font face=&quot;Comic Sans MS&quot;&gt;End Skill&lt;/font&gt;" style="ellipse;whiteSpace=wrap;html=1;" parent="1" vertex="1">
          <mxGeometry x="1610" y="340" width="120" height="80" as="geometry" />
        </mxCell>
        <mxCell id="H9soS0Qhs3Yd9zRTkoWd-2" value="&lt;font face=&quot;Comic Sans MS&quot;&gt;YES&lt;/font&gt;" style="text;html=1;align=center;verticalAlign=middle;whiteSpace=wrap;rounded=0;" vertex="1" parent="1">
          <mxGeometry x="1050" y="380" width="60" height="30" as="geometry" />
        </mxCell>
        <mxCell id="H9soS0Qhs3Yd9zRTkoWd-4" value="&lt;font face=&quot;Comic Sans MS&quot;&gt;YES&lt;/font&gt;" style="text;html=1;align=center;verticalAlign=middle;whiteSpace=wrap;rounded=0;" vertex="1" parent="1">
          <mxGeometry x="540" y="350" width="60" height="30" as="geometry" />
        </mxCell>
      </root>
    </mxGraphModel>
  </diagram>
</mxfile>
